<svg width="28" height="28" viewBox="0 0 28 28" fill="none" xmlns="http://www.w3.org/2000/svg">
<path d="M17.4805 23.8269H6.13435C4.88108 23.8269 3.86511 22.8109 3.86511 21.5577V9.07688C3.86511 8.45025 4.3731 7.94226 4.99973 7.94226H16.3459C16.9725 7.94226 17.4805 8.45025 17.4805 9.07688V11.9134" stroke="black" stroke-width="2.26923" stroke-linecap="round" stroke-linejoin="round"/>
<path d="M10.6727 13.6148C10.6727 12.9881 11.1807 12.4802 11.8073 12.4802H23.1535C23.7801 12.4802 24.2881 12.9881 24.2881 13.6148V21.5571C24.2881 22.8104 23.2722 23.8263 22.0189 23.8263H12.942C11.6887 23.8263 10.6727 22.8104 10.6727 21.5571V13.6148Z" stroke="black" stroke-width="2.26923" stroke-linecap="round" stroke-linejoin="round"/>
<path d="M14.0766 7.94197V6.80735C14.0766 4.92746 12.5527 3.4035 10.6728 3.4035V3.4035C8.79288 3.4035 7.26892 4.92746 7.26892 6.80735V7.94197" stroke="black" stroke-width="2.26923" stroke-linecap="round" stroke-linejoin="round"/>
<path d="M15.2109 15.884L15.2109 17.0186C15.2109 18.2719 16.2269 19.2878 17.4802 19.2878V19.2878C18.7334 19.2878 19.7494 18.2719 19.7494 17.0186L19.7494 15.884" stroke="black" stroke-width="2.26923" stroke-linecap="round" stroke-linejoin="round"/>
</svg>
