<svg width="29" height="28" viewBox="0 0 29 28" fill="none" xmlns="http://www.w3.org/2000/svg">
<path d="M6.59521 5.67276C5.96858 5.67276 5.4606 6.18074 5.4606 6.80737C5.4606 7.434 5.96858 7.94199 6.59521 7.94199V5.67276ZM22.4798 7.94199C23.1065 7.94199 23.6145 7.434 23.6145 6.80737C23.6145 6.18074 23.1065 5.67276 22.4798 5.67276V7.94199ZM6.59521 10.2112C5.96858 10.2112 5.4606 10.7192 5.4606 11.3458C5.4606 11.9725 5.96858 12.4805 6.59521 12.4805V10.2112ZM22.4798 12.4805C23.1065 12.4805 23.6145 11.9725 23.6145 11.3458C23.6145 10.7192 23.1065 10.2112 22.4798 10.2112V12.4805ZM6.59521 14.7497C5.96858 14.7497 5.4606 15.2577 5.4606 15.8843C5.4606 16.5109 5.96858 17.0189 6.59521 17.0189V14.7497ZM22.4798 17.0189C23.1065 17.0189 23.6145 16.5109 23.6145 15.8843C23.6145 15.2577 23.1065 14.7497 22.4798 14.7497V17.0189ZM6.59521 19.2882C5.96858 19.2882 5.4606 19.7961 5.4606 20.4228C5.4606 21.0494 5.96858 21.5574 6.59521 21.5574V19.2882ZM22.4798 21.5574C23.1065 21.5574 23.6145 21.0494 23.6145 20.4228C23.6145 19.7961 23.1065 19.2882 22.4798 19.2882V21.5574ZM6.59521 7.94199H22.4798V5.67276H6.59521V7.94199ZM6.59521 12.4805H22.4798V10.2112H6.59521V12.4805ZM6.59521 17.0189H22.4798V14.7497H6.59521V17.0189ZM6.59521 21.5574H22.4798V19.2882H6.59521V21.5574Z" fill="black"/>
</svg>
