<svg width="28" height="28" viewBox="0 0 28 28" fill="none" xmlns="http://www.w3.org/2000/svg">
<path d="M9.76843 10.2111C9.76843 7.70458 11.8004 5.67264 14.3069 5.67264V3.40341C10.5471 3.40341 7.4992 6.45132 7.4992 10.2111H9.76843ZM9.76843 13.3388V10.2111H7.4992V13.3388H9.76843ZM7.49948 18.1534C7.49948 17.5473 7.73559 16.9988 8.12313 16.5909L6.47792 15.028C5.70577 15.8408 5.23025 16.9428 5.23025 18.1534H7.49948ZM21.1149 18.1534H7.49948V20.4227H21.1149V18.1534ZM20.4911 16.5908C20.8787 16.9987 21.1149 17.5473 21.1149 18.1534H23.3841C23.3841 16.9426 22.9085 15.8405 22.1362 15.0277L20.4911 16.5908ZM18.8454 10.2111V13.3383H21.1146V10.2111H18.8454ZM14.3069 5.67264C16.8134 5.67264 18.8454 7.70458 18.8454 10.2111H21.1146C21.1146 6.45132 18.0667 3.40341 14.3069 3.40341V5.67264ZM21.1149 20.4227C22.3681 20.4227 23.3841 19.4067 23.3841 18.1534H21.1149L21.1149 18.1534V20.4227ZM5.23025 18.1534C5.23025 19.4067 6.24622 20.4227 7.49948 20.4227V18.1534L7.49948 18.1534H5.23025ZM22.1362 15.0277C21.4463 14.3017 21.1146 13.7939 21.1146 13.3383H18.8454C18.8454 14.8062 19.8559 15.9222 20.4911 16.5908L22.1362 15.0277ZM7.4992 13.3388C7.4992 13.7944 7.16756 14.302 6.47792 15.028L8.12313 16.5909C8.75817 15.9224 9.76843 14.8065 9.76843 13.3388H7.4992Z" fill="black"/>
<path d="M16.3466 22.5518C16.1579 22.9389 15.8629 23.2642 15.4961 23.4898C15.1294 23.7155 14.706 23.8321 14.2754 23.8261C13.8448 23.8201 13.4248 23.6917 13.0645 23.4559C12.7042 23.2201 12.4184 22.8867 12.2405 22.4945" stroke="black" stroke-width="2.26923" stroke-linecap="round" stroke-linejoin="round"/>
<path d="M14.3068 3.4035V4.53812" stroke="black" stroke-width="2.26923" stroke-linecap="round" stroke-linejoin="round"/>
</svg>
